<?xml version="1.0" standalone="no"?>
<!DOCTYPE svg PUBLIC "-//W3C//DTD SVG 20010904//EN"
 "http://www.w3.org/TR/2001/REC-SVG-20010904/DTD/svg10.dtd">
<svg version="1.0" xmlns="http://www.w3.org/2000/svg"
 width="300.000000pt" height="300.000000pt" viewBox="0 0 300.000000 300.000000"
 preserveAspectRatio="xMidYMid meet">
<metadata>
Created by potrace 1.14, written by Peter Selinger 2001-2017
</metadata>
<g transform="translate(0.000000,300.000000) scale(0.100000,-0.100000)"
fill="#000000" stroke="none">
<path d="M1270 2515 c-351 -58 -611 -218 -750 -462 -88 -153 -106 -269 -70
-442 41 -200 126 -327 262 -396 56 -27 83 -35 127 -35 l56 0 2 -39 c2 -38 0
-41 -52 -70 -88 -50 -165 -168 -165 -254 0 -37 33 -89 67 -105 30 -14 39 -14
105 2 40 10 78 20 83 22 6 2 18 -26 28 -62 44 -169 156 -275 291 -276 98 0
155 40 192 138 16 42 17 58 6 158 -6 61 -14 121 -18 133 -8 29 18 36 131 35
126 -2 186 -20 379 -117 161 -81 171 -85 235 -85 120 0 164 53 141 167 -16 79
-48 130 -125 201 -59 54 -122 89 -207 116 -32 10 -19 26 22 26 49 0 143 31
235 78 99 51 235 186 274 273 105 233 47 458 -170 665 -142 135 -349 241 -598
305 -142 37 -342 47 -481 24z m391 -50 c263 -48 573 -206 701 -356 115 -134
158 -236 158 -368 0 -147 -46 -246 -165 -359 -77 -73 -156 -120 -267 -158 -98
-33 -102 -33 -94 16 3 22 2 40 -3 40 -9 0 -51 -90 -51 -109 0 -6 -16 -11 -36
-11 -55 0 -36 -21 37 -40 190 -49 338 -192 342 -332 3 -69 -15 -83 -106 -83
-69 0 -77 3 -191 63 -66 35 -161 78 -210 95 -84 29 -101 31 -223 31 -145 0
-143 -1 -143 69 0 30 -14 27 165 33 139 4 363 -49 513 -123 51 -25 95 -43 99
-40 10 11 -50 57 -114 87 -68 32 -228 81 -330 100 -37 8 -118 11 -202 8 -136
-3 -140 -3 -136 17 2 11 7 37 10 57 3 21 9 39 14 42 4 3 25 -1 47 -9 48 -17
159 -19 205 -3 106 36 162 111 164 219 1 38 4 72 8 75 12 13 7 35 -13 61 -11
14 -20 40 -20 58 0 49 -43 185 -73 233 -15 23 -46 56 -69 72 -93 67 -173 60
-265 -24 -42 -38 -58 -47 -61 -36 -9 26 -70 78 -108 90 -54 18 -145 7 -198
-24 -51 -30 -98 -80 -127 -137 -27 -53 -59 -181 -59 -235 0 -24 -4 -46 -10
-49 -16 -10 -12 -34 10 -52 11 -10 20 -30 20 -46 0 -15 7 -44 15 -64 8 -19 15
-39 15 -44 0 -5 -24 -9 -54 -9 -69 0 -163 47 -229 114 -124 129 -183 416 -118
585 53 140 186 304 308 382 116 73 285 138 428 164 99 19 315 18 416 0z m-403
-624 c20 -11 49 -35 64 -54 l28 -35 -22 -59 c-16 -45 -21 -85 -23 -178 l-3
-120 -123 -3 c-107 -2 -284 9 -293 19 -6 6 21 163 37 216 22 73 50 123 95 166
67 66 167 85 240 48z m386 -6 c20 -14 48 -37 61 -53 29 -32 70 -141 89 -237 8
-38 19 -71 25 -73 13 -4 14 -29 2 -36 -5 -3 -61 -17 -125 -31 -123 -27 -282
-34 -332 -15 l-27 11 6 117 c8 174 52 272 147 322 51 27 109 25 154 -5z m175
-477 c0 -62 -29 -127 -69 -159 -19 -16 -64 -36 -101 -46 -120 -31 -215 8 -257
104 -23 54 -31 92 -19 93 74 4 87 0 101 -34 27 -64 119 -55 132 13 6 27 11 30
97 48 51 11 98 21 105 22 8 1 12 -13 11 -41z m-818 2 c66 0 70 -1 79 -26 6
-14 19 -28 30 -31 11 -3 20 -8 20 -11 0 -2 -17 -23 -38 -46 -21 -22 -46 -52
-55 -66 l-18 -25 -29 35 c-33 39 -90 145 -90 168 0 9 6 12 16 8 9 -3 47 -6 85
-6z m344 -46 c6 -27 24 -72 39 -100 27 -50 27 -52 11 -78 -29 -44 -31 -147 -4
-267 16 -74 23 -137 23 -220 1 -112 0 -116 -28 -153 -47 -62 -134 -84 -210
-52 -177 74 -246 358 -152 624 42 118 238 313 300 298 6 -1 15 -24 21 -52z
m-366 -155 c21 -24 28 -39 19 -39 -8 0 -19 5 -26 12 -9 9 -12 9 -12 0 0 -6 7
-15 15 -20 14 -7 13 -17 -3 -85 l-18 -77 -59 -29 c-60 -28 -114 -74 -98 -84 4
-3 39 13 76 35 37 23 69 39 71 37 2 -2 1 -34 -2 -70 l-4 -67 -67 -18 c-36 -10
-75 -17 -86 -16 -30 2 -65 48 -65 85 1 78 89 195 183 243 35 18 46 28 39 37
-16 19 -19 98 -4 96 4 0 22 -18 41 -40z"/>
<path d="M1480 2435 c-16 -20 -1 -38 23 -29 21 8 22 18 3 33 -10 9 -16 8 -26
-4z"/>
<path d="M1086 2393 c-12 -12 -6 -33 9 -33 8 0 15 6 15 14 0 17 -14 28 -24 19z"/>
<path d="M1240 2365 c0 -10 7 -15 18 -13 21 4 19 22 -2 26 -10 2 -16 -3 -16
-13z"/>
<path d="M1774 2339 c-3 -6 -1 -16 5 -22 9 -9 14 -8 21 3 9 15 4 30 -10 30 -5
0 -12 -5 -16 -11z"/>
<path d="M1950 2341 c0 -5 7 -14 15 -21 18 -15 42 1 31 19 -8 13 -46 15 -46 2z"/>
<path d="M1335 2303 c-75 -11 -33 -20 112 -26 87 -4 172 -10 188 -13 22 -5 27
-4 19 5 -24 26 -224 47 -319 34z"/>
<path d="M930 2280 c0 -15 5 -20 18 -18 9 2 17 10 17 18 0 8 -8 16 -17 18 -13
2 -18 -3 -18 -18z"/>
<path d="M784 2245 c-9 -22 5 -38 22 -24 18 15 18 25 -1 33 -9 3 -18 -1 -21
-9z"/>
<path d="M2092 2213 c4 -22 43 -25 43 -3 0 8 -11 16 -23 18 -19 3 -23 0 -20
-15z"/>
<path d="M1189 2205 c-92 -15 -119 -23 -119 -36 0 -11 -10 -12 85 7 109 21
332 21 454 0 143 -26 132 -2 -13 28 -94 19 -296 20 -407 1z"/>
<path d="M2257 2153 c-4 -3 -7 -12 -7 -20 0 -15 26 -18 34 -4 7 11 -18 33 -27
24z"/>
<path d="M1150 2080 c-91 -13 -159 -30 -167 -43 -4 -7 8 -8 38 -3 102 18 191
25 304 25 105 1 173 -6 375 -34 78 -11 19 14 -83 36 -107 22 -366 33 -467 19z"/>
<path d="M1715 1122 c-44 -24 -61 -27 -147 -27 -53 0 -94 -3 -92 -7 10 -16 91
-29 139 -23 51 6 155 57 155 75 0 12 5 14 -55 -18z"/>
</g>
</svg>
