<?xml version="1.0" standalone="no"?>
<!DOCTYPE svg PUBLIC "-//W3C//DTD SVG 20010904//EN"
 "http://www.w3.org/TR/2001/REC-SVG-20010904/DTD/svg10.dtd">
<svg version="1.0" xmlns="http://www.w3.org/2000/svg"
 width="215.000000pt" height="215.000000pt" viewBox="0 0 215.000000 215.000000"
 preserveAspectRatio="xMidYMid meet">
<metadata>
Created by potrace 1.14, written by Peter Selinger 2001-2017
</metadata>
<g transform="translate(0.000000,215.000000) scale(0.100000,-0.100000)"
fill="#000000" stroke="none">
<path d="M570 2009 c0 -5 5 -7 10 -4 6 3 10 8 10 11 0 2 -4 4 -10 4 -5 0 -10
-5 -10 -11z"/>
<path d="M1599 2003 c-13 -16 -12 -17 4 -4 9 7 17 15 17 17 0 8 -8 3 -21 -13z"/>
<path d="M495 1990 c-3 -5 -1 -10 4 -10 6 0 11 5 11 10 0 6 -2 10 -4 10 -3 0
-8 -4 -11 -10z"/>
<path d="M1552 1985 c17 -20 68 -33 68 -17 0 5 -10 8 -22 7 -13 -1 -32 5 -43
14 -19 16 -20 15 -3 -4z"/>
<path d="M1646 1987 c-16 -12 -16 -13 2 -13 10 0 19 6 19 13 0 7 -1 13 -2 13
-1 0 -9 -6 -19 -13z"/>
<path d="M524 1972 c4 -3 14 -7 22 -8 9 -1 13 0 10 4 -4 3 -14 7 -22 8 -9 1
-13 0 -10 -4z"/>
<path d="M570 1966 c-13 -13 -80 -18 -80 -6 0 6 -5 10 -11 10 -5 0 -7 -4 -4
-10 3 -5 1 -10 -4 -10 -6 0 -11 6 -11 13 0 9 -2 9 -9 -1 -4 -7 -19 -11 -33 -8
-27 4 -66 -22 -70 -47 0 -7 -2 -16 -2 -22 -1 -5 -5 -15 -9 -22 -4 -6 -2 -15 4
-18 7 -5 2 -16 -13 -34 -12 -14 -16 -20 -8 -13 22 19 26 15 26 -30 -1 -32 -6
-46 -21 -55 -19 -12 -19 -12 3 -13 20 0 21 -3 12 -20 -6 -11 -7 -20 -3 -20 4
0 -2 -7 -13 -15 -19 -14 -19 -14 1 -9 16 4 21 0 21 -15 0 -19 -8 -26 -29 -22
-5 1 -6 -3 -2 -9 3 -5 13 -10 21 -10 11 0 12 -4 5 -19 -6 -10 -7 -22 -3 -26 4
-4 -5 -6 -20 -3 -15 3 -25 1 -22 -3 3 -5 16 -9 28 -9 30 0 30 -30 1 -47 -19
-12 -19 -12 3 -13 20 0 21 -3 12 -20 -6 -11 -7 -20 -3 -20 4 0 -2 -7 -13 -15
-19 -14 -19 -14 1 -9 16 4 21 0 21 -15 0 -19 -8 -26 -29 -22 -5 1 -6 -3 -2 -9
3 -5 12 -10 19 -10 7 0 12 -10 11 -22 -1 -18 -8 -23 -28 -23 -14 1 -23 -3 -21
-7 3 -4 15 -8 27 -8 26 0 32 -36 9 -45 -9 -3 -12 0 -9 9 6 15 -17 16 -30 1 -5
-4 -2 -5 6 0 11 6 13 4 8 -8 -3 -9 -3 -16 1 -16 4 1 15 1 25 0 14 -1 16 -5 7
-20 -13 -26 -13 -34 2 -25 8 5 9 2 4 -12 -4 -10 -10 -32 -13 -48 -5 -23 -3
-27 7 -21 10 6 12 4 6 -11 -4 -10 -10 -32 -13 -48 -5 -23 -3 -27 7 -21 10 6
12 4 6 -11 -15 -40 -20 -77 -8 -70 15 9 15 3 -2 -38 -8 -19 -10 -38 -6 -42 15
-17 16 -49 0 -61 -13 -11 -13 -12 3 -13 15 0 16 -3 7 -20 -6 -11 -7 -20 -3
-21 4 0 -1 -4 -12 -9 -20 -8 -20 -9 1 -9 15 -1 20 -7 19 -23 -1 -13 -8 -23
-17 -22 -8 1 -14 -8 -14 -22 0 -12 4 -20 8 -18 5 3 6 10 3 15 -4 5 1 9 10 9
13 0 14 -4 5 -20 -6 -11 -7 -20 -3 -20 4 0 1 -5 -7 -10 -13 -8 -13 -10 1 -10
21 0 20 -31 -1 -47 -8 -6 -12 -15 -7 -19 4 -4 7 -2 7 5 0 7 5 9 10 6 7 -5 8
-11 1 -19 -6 -7 -6 -17 -1 -26 6 -9 3 -18 -8 -27 -16 -11 -16 -12 1 -13 14 0
16 -4 8 -19 -6 -10 -7 -22 -3 -26 4 -4 -3 -4 -15 -1 -12 4 -24 2 -28 -3 -4 -7
1 -8 12 -4 16 6 17 5 3 -13 -11 -15 -11 -16 0 -7 8 7 21 13 29 13 13 -1 12 -4
-4 -17 -16 -13 -17 -15 -2 -10 9 4 17 2 17 -3 0 -6 -5 -10 -11 -10 -5 0 -7 -5
-4 -11 16 -25 12 -60 -9 -75 -20 -15 -20 -15 -1 -12 14 2 20 -3 20 -17 0 -11
8 -23 18 -27 10 -4 16 -12 13 -16 -3 -5 6 -7 21 -4 19 4 24 2 18 -8 -6 -10 -4
-11 6 -4 17 11 89 13 89 2 0 -4 8 -8 18 -8 13 0 14 2 4 9 -8 5 5 8 32 7 26 0
46 -4 46 -8 0 -4 5 -8 11 -8 5 0 8 4 5 8 -10 16 38 10 51 -6 10 -13 12 -13 8
-2 -4 12 2 16 25 18 34 3 69 31 62 51 -2 7 2 17 9 22 8 5 9 9 3 9 -13 0 -14
31 -1 48 6 8 6 12 -2 12 -6 0 -11 4 -11 10 0 6 9 6 25 0 16 -6 27 -6 31 2 4 6
3 9 -2 6 -5 -3 -18 -2 -28 1 -15 6 -20 18 -21 54 -2 26 1 50 6 53 5 3 6 -3 2
-13 -6 -15 -5 -16 9 -3 15 14 15 16 -1 23 -14 7 -17 20 -15 75 1 37 2 71 3 76
1 5 10 1 20 -8 13 -12 21 -14 26 -6 4 6 1 9 -7 8 -7 -2 -12 3 -11 9 2 7 0 12
-5 12 -24 -4 -28 6 -26 69 2 86 1 82 22 76 12 -3 11 -1 -3 6 -17 9 -20 21 -20
73 0 55 3 62 20 62 14 0 20 6 19 23 0 12 4 21 10 19 6 -2 10 -12 10 -21 -1 -9
2 -16 7 -16 5 0 9 9 9 20 0 11 3 19 8 19 25 -4 33 1 20 15 -11 11 -15 11 -25
-3 -6 -9 -15 -13 -19 -8 -4 4 -2 7 4 7 7 0 12 4 12 8 0 5 -7 9 -15 9 -8 0 -12
-4 -9 -9 3 -4 0 -8 -6 -8 -7 0 -9 9 -5 23 5 20 5 20 -9 -3 -8 -14 -12 -29 -9
-34 4 -5 0 -6 -7 -1 -8 5 -11 4 -6 -3 3 -6 3 -13 -2 -16 -4 -2 -8 6 -8 19 0
13 4 21 8 19 4 -3 8 0 8 5 0 6 -6 11 -12 11 -9 0 -10 3 -2 8 6 4 10 15 8 25
-1 9 2 15 7 11 5 -3 7 -10 4 -15 -7 -10 31 -7 41 4 4 4 12 7 18 7 6 0 3 -5 -6
-11 -10 -5 -18 -15 -18 -21 0 -7 5 -6 15 2 13 10 19 8 38 -16 12 -16 22 -31
22 -34 0 -3 12 -21 26 -40 33 -43 45 -80 28 -80 -7 0 -9 -3 -6 -6 4 -4 13 -1
22 6 13 10 15 9 15 -9 0 -11 5 -21 10 -21 6 0 10 -5 10 -11 0 -7 8 -18 17 -25
17 -12 17 -14 -2 -27 -19 -14 -18 -15 9 -10 19 4 27 2 23 -5 -4 -5 0 -12 8
-16 9 -3 12 -12 8 -22 -4 -12 -3 -15 5 -10 7 4 12 1 12 -8 0 -9 5 -16 10 -16
6 0 10 -7 10 -15 0 -8 5 -15 10 -15 6 0 10 -6 10 -14 0 -8 6 -16 13 -19 10 -4
10 -7 0 -18 -10 -9 -13 -10 -13 -1 0 7 -4 12 -8 12 -5 0 -9 -6 -9 -14 0 -14
14 -16 33 -3 10 6 64 -61 64 -79 0 -4 8 -13 18 -21 9 -8 12 -12 6 -9 -6 3 -11
-1 -11 -8 0 -8 6 -12 12 -10 7 3 20 -6 29 -20 9 -15 13 -26 9 -26 -4 0 1 -6
12 -13 14 -11 15 -16 5 -22 -8 -5 -11 -4 -7 2 3 5 0 10 -8 10 -11 0 -12 -4 -4
-13 6 -7 16 -11 24 -8 7 3 16 0 21 -7 4 -7 3 -10 -4 -5 -6 3 -14 1 -18 -5 -4
-7 -3 -9 3 -6 6 4 19 -1 29 -9 10 -9 13 -13 6 -9 -7 4 -11 1 -10 -7 2 -7 -3
-12 -11 -10 -12 3 -12 1 -1 -15 8 -10 16 -20 18 -23 2 -3 2 4 0 14 -1 10 3 21
10 23 6 3 12 -2 12 -11 0 -9 5 -16 10 -16 6 0 10 -6 10 -14 0 -8 7 -17 16 -20
9 -3 12 -11 8 -18 -4 -7 -4 -10 1 -6 4 4 14 3 21 -3 8 -6 41 -12 74 -12 33 -1
60 -5 60 -9 0 -4 8 -8 18 -8 12 0 13 3 5 8 -7 5 18 9 57 9 47 1 70 -3 70 -10
0 -9 3 -8 8 0 4 7 24 14 43 15 29 3 35 7 37 28 1 14 7 26 12 28 6 2 10 8 10
13 0 6 -4 8 -8 5 -4 -2 -8 6 -8 20 0 15 6 24 15 24 11 0 10 4 -5 15 -18 14
-18 15 6 11 14 -2 24 -9 22 -16 -1 -6 2 -9 8 -5 8 5 8 11 -1 21 -6 7 -15 12
-19 9 -9 -6 -23 12 -26 33 -1 6 2 12 7 12 5 0 9 -8 9 -17 0 -9 3 -14 6 -10 11
10 -7 48 -19 41 -8 -5 -8 -2 1 7 6 7 12 17 12 22 0 4 -6 5 -12 1 -10 -6 -10
-4 0 7 6 7 12 17 12 22 0 4 -6 5 -12 1 -10 -5 -10 -4 -1 6 6 7 9 19 6 28 -4
10 -2 13 5 8 8 -5 10 -2 6 8 -3 9 -11 13 -18 9 -6 -4 -6 0 2 9 7 9 9 19 5 21
-5 3 -8 18 -7 34 1 21 6 27 20 25 18 -2 18 -2 -1 10 -20 13 -28 68 -12 84 4 4
7 -1 7 -11 0 -10 3 -16 6 -12 11 10 -7 48 -19 41 -8 -5 -8 -2 1 7 16 17 16 32
-1 23 -9 -6 -9 -4 1 7 15 17 16 33 0 23 -6 -4 -4 3 5 15 15 23 13 56 -4 45
-12 -7 2 29 15 38 7 5 4 8 -7 8 -10 0 -15 5 -12 10 4 6 12 7 18 3 7 -3 4 2 -5
13 -12 13 -14 24 -8 34 9 14 11 13 14 -9 0 -5 4 -12 8 -16 3 -4 5 1 3 12 -2
10 -4 21 -4 26 -1 4 -8 7 -16 7 -13 0 -14 4 -5 20 6 12 16 18 23 14 9 -5 9 -4
0 6 -6 7 -9 19 -6 26 3 8 -1 16 -9 19 -16 6 -17 39 -3 52 4 5 5 2 1 -4 -4 -7
-2 -13 4 -13 6 0 9 -4 5 -9 -3 -5 -1 -12 4 -15 10 -7 9 6 -3 42 -4 13 -12 20
-19 16 -8 -5 -8 -2 1 7 14 15 17 33 4 25 -11 -7 -8 24 5 49 12 23 6 48 -9 39
-6 -4 -6 2 1 14 14 27 14 35 -1 27 -7 -4 -4 1 6 9 16 13 17 16 4 16 -11 0 -15
6 -11 20 3 11 9 18 13 15 5 -3 12 -1 15 5 4 6 3 10 -2 9 -20 -3 -34 2 -28 11
3 5 12 7 20 3 8 -3 15 0 15 7 0 6 -4 9 -8 6 -4 -2 -14 -1 -22 5 -10 6 -11 9
-2 9 14 0 16 36 2 45 -7 4 -7 12 0 25 13 24 13 33 0 25 -15 -9 -12 2 6 19 14
15 14 16 -1 16 -13 0 -14 4 -5 20 6 11 15 18 20 15 4 -3 7 3 5 12 -2 10 -4 21
-4 26 -1 4 -8 7 -16 7 -13 0 -14 4 -5 20 6 11 14 19 18 16 4 -2 8 4 8 14 0 10
-4 16 -8 14 -4 -3 -8 0 -8 6 0 6 -6 8 -12 5 -7 -4 -4 1 6 9 14 12 16 16 5 16
-9 0 -14 11 -14 30 -1 30 5 37 19 23 12 -13 33 -11 33 3 0 11 -4 11 -14 2 -11
-9 -15 -7 -20 10 -3 12 -8 20 -12 18 -9 -6 -7 67 3 82 4 7 4 12 -1 12 -4 0
-14 13 -20 28 l-13 28 -114 -1 c-68 -1 -114 2 -113 8 1 5 -6 11 -16 12 -9 2
-15 -1 -11 -6 3 -5 11 -6 17 -3 9 5 9 4 1 -5 -13 -14 -47 -4 -37 12 3 6 1 7
-6 3 -6 -4 -9 -12 -6 -17 9 -13 -9 -11 -24 4 -11 10 -13 9 -7 -1 6 -9 -1 -12
-24 -10 -21 2 -35 -3 -41 -14 -6 -10 -17 -15 -27 -12 -10 4 -13 3 -6 -3 12 -9
13 -157 1 -169 -9 -10 -9 -26 1 -21 4 3 8 -12 8 -34 1 -32 -2 -37 -12 -28 -19
16 -18 4 2 -15 8 -9 11 -16 5 -16 -6 0 -11 -5 -11 -11 0 -5 4 -8 9 -5 10 7 9
-20 -2 -30 -10 -10 -9 -26 1 -20 5 3 8 -14 8 -37 -1 -27 -6 -44 -16 -49 -13
-6 -13 -7 1 -7 16 -1 23 -31 7 -31 -4 0 -8 -5 -8 -11 0 -5 4 -8 8 -5 5 3 9 -2
9 -10 0 -8 -6 -13 -14 -10 -7 3 -13 1 -13 -4 0 -6 6 -10 13 -10 7 0 13 -13 13
-30 2 -26 0 -29 -14 -18 -14 12 -14 10 -2 -12 15 -28 21 -70 10 -70 -16 0 -18
-30 -4 -45 9 -8 11 -15 5 -15 -6 0 -11 -5 -11 -11 0 -5 5 -7 11 -3 8 4 8 0 0
-15 -9 -16 -9 -21 1 -21 9 0 9 -3 -2 -10 -13 -9 -13 -10 0 -10 12 0 12 -2 2
-9 -8 -4 -14 -12 -15 -17 -1 -5 -15 -20 -32 -34 -20 -17 -25 -18 -15 -6 14 18
13 19 -1 14 -13 -5 -16 -2 -12 13 5 17 -5 24 -29 20 -5 0 -8 6 -8 14 0 8 -6
15 -12 15 -7 1 4 10 25 21 20 11 37 25 37 32 0 8 -3 9 -8 1 -11 -17 -51 -36
-62 -29 -14 9 -1 28 14 22 7 -3 13 1 13 8 0 7 -7 12 -16 11 -9 0 -15 5 -14 11
2 7 -3 12 -10 10 -6 -1 -11 4 -9 11 1 8 -2 11 -8 7 -8 -5 -7 -11 1 -21 6 -8 8
-14 3 -14 -10 0 -49 61 -46 73 1 4 -2 7 -7 7 -5 0 -14 14 -21 30 -7 17 -17 30
-23 30 -6 0 -8 3 -4 6 3 3 -3 16 -14 27 -11 12 -17 27 -15 34 3 7 -1 13 -10
13 -16 0 -16 29 1 43 6 5 4 7 -5 4 -8 -2 -14 -10 -12 -16 1 -7 -2 -10 -8 -6
-5 3 -10 15 -10 27 0 15 4 18 18 13 13 -5 14 -4 5 6 -10 10 -16 9 -29 -2 -10
-8 -15 -9 -11 -2 4 6 4 13 -1 15 -4 1 -19 19 -32 38 -16 22 -18 30 -7 21 15
-12 17 -12 11 3 -3 9 -12 16 -18 16 -18 0 -36 40 -32 70 2 19 -2 26 -15 26
-17 0 -17 -2 -2 -18 9 -10 12 -18 6 -18 -5 0 -16 12 -23 28 -8 15 -22 37 -33
48 -16 19 -23 38 -26 67 -1 5 -5 6 -10 3 -8 -5 -25 22 -21 33 1 2 -2 7 -7 10
-15 11 -38 45 -25 37 6 -4 12 -2 12 3 0 6 -6 11 -14 11 -8 0 -18 9 -21 21 -4
11 -9 18 -13 15 -3 -3 -15 0 -26 6 -12 7 -42 13 -68 13 -46 0 -62 8 -35 18 6
3 2 4 -11 4 -12 -1 -27 -6 -32 -11z m20 -6 c0 -5 -5 -10 -11 -10 -5 0 -7 5 -4
10 3 6 8 10 11 10 2 0 4 -4 4 -10z m1220 -290 c0 -5 -5 -10 -11 -10 -5 0 -7 5
-4 10 3 6 8 10 11 10 2 0 4 -4 4 -10z m5 -81 c-10 -15 -25 -10 -19 6 4 8 10
12 15 9 5 -3 7 -10 4 -15z m-448 -344 c0 -8 -4 -12 -9 -9 -5 3 -6 10 -3 15 9
13 12 11 12 -6z m-142 -35 c3 -5 -1 -10 -10 -10 -9 0 -13 5 -10 10 3 6 8 10
10 10 2 0 7 -4 10 -10z m135 -130 c-13 -9 -13 -11 0 -20 8 -5 11 -10 5 -10 -5
0 -17 5 -25 10 -13 9 -13 11 0 20 8 5 20 10 25 10 6 0 3 -5 -5 -10z m-525 -10
c3 -6 -1 -7 -9 -4 -18 7 -21 14 -7 14 6 0 13 -4 16 -10z m-9 -28 c-4 -3 -14 2
-24 12 -16 18 -16 18 6 6 13 -6 21 -14 18 -18z m499 9 c3 -5 2 -12 -3 -15 -5
-3 -9 1 -9 9 0 17 3 19 12 6z m485 -1 c0 -5 -5 -10 -11 -10 -5 0 -7 5 -4 10 3
6 8 10 11 10 2 0 4 -4 4 -10z m-450 -14 c0 -2 -8 -10 -17 -17 -16 -13 -17 -12
-4 4 13 16 21 21 21 13z m-554 -103 c-10 -10 -19 5 -10 18 6 11 8 11 12 0 2
-7 1 -15 -2 -18z m-456 -63 c0 -5 -5 -10 -11 -10 -5 0 -7 5 -4 10 3 6 8 10 11
10 2 0 4 -4 4 -10z"/>
<path d="M657 1969 c7 -7 15 -10 18 -7 3 3 -2 9 -12 12 -14 6 -15 5 -6 -5z"/>
<path d="M1695 1970 c3 -5 8 -10 11 -10 2 0 4 5 4 10 0 6 -5 10 -11 10 -5 0
-7 -4 -4 -10z"/>
<path d="M770 1930 c0 -5 5 -10 11 -10 5 0 7 5 4 10 -3 6 -8 10 -11 10 -2 0
-4 -4 -4 -10z"/>
<path d="M306 1912 c-2 -4 4 -8 14 -8 10 0 16 4 14 8 -3 4 -9 8 -14 8 -5 0
-11 -4 -14 -8z"/>
<path d="M855 1859 c-4 -6 -5 -12 -2 -15 2 -3 7 2 10 11 7 17 1 20 -8 4z"/>
<path d="M295 1829 c-3 -4 2 -6 10 -5 21 3 28 13 10 13 -9 0 -18 -4 -20 -8z"/>
<path d="M815 1830 c3 -5 8 -10 11 -10 2 0 4 5 4 10 0 6 -5 10 -11 10 -5 0 -7
-4 -4 -10z"/>
<path d="M1345 1801 c-3 -5 -2 -12 3 -15 5 -3 9 1 9 9 0 17 -3 19 -12 6z"/>
<path d="M310 1776 c0 -2 8 -10 18 -17 15 -13 16 -12 3 4 -13 16 -21 21 -21
13z"/>
<path d="M866 1765 c-3 -8 0 -17 6 -21 6 -4 8 -3 4 4 -3 5 -1 12 6 14 8 3 9 6
1 11 -6 4 -13 0 -17 -8z"/>
<path d="M1319 1763 c-12 -16 -12 -17 2 -6 9 7 20 9 24 5 5 -4 5 -1 1 6 -9 16
-11 15 -27 -5z"/>
<path d="M915 1750 c3 -5 8 -10 11 -10 2 0 4 5 4 10 0 6 -5 10 -11 10 -5 0 -7
-4 -4 -10z"/>
<path d="M908 1713 c7 -3 16 -2 19 1 4 3 -2 6 -13 5 -11 0 -14 -3 -6 -6z"/>
<path d="M1316 1671 c-3 -5 2 -15 12 -22 15 -12 16 -12 5 2 -7 9 -10 19 -6 22
3 4 4 7 0 7 -3 0 -8 -4 -11 -9z"/>
<path d="M1820 1630 c8 -5 20 -10 25 -10 6 0 3 5 -5 10 -8 5 -19 10 -25 10 -5
0 -3 -5 5 -10z"/>
<path d="M1319 1603 c-12 -16 -12 -17 2 -6 9 7 20 9 24 5 5 -4 5 -1 1 6 -9 16
-11 15 -27 -5z"/>
<path d="M1020 1596 c0 -2 8 -10 18 -17 15 -13 16 -12 3 4 -13 16 -21 21 -21
13z"/>
<path d="M995 1561 c-3 -6 5 -15 17 -21 21 -10 21 -10 6 3 -10 8 -15 17 -11
20 3 4 4 7 0 7 -3 0 -8 -4 -12 -9z"/>
<path d="M1810 1555 c0 -7 30 -13 34 -7 3 4 -4 9 -15 9 -10 1 -19 0 -19 -2z"/>
<path d="M1326 1508 c3 -4 9 -8 15 -8 5 0 9 4 9 8 0 5 -7 9 -15 9 -8 0 -12 -4
-9 -9z"/>
<path d="M1327 1469 c7 -7 15 -10 18 -7 3 3 -2 9 -12 12 -14 6 -15 5 -6 -5z"/>
<path d="M1805 1470 c-3 -6 1 -7 9 -4 18 7 21 14 7 14 -6 0 -13 -4 -16 -10z"/>
<path d="M1108 1393 c7 -3 16 -2 19 1 4 3 -2 6 -13 5 -11 0 -14 -3 -6 -6z"/>
<path d="M1125 1370 c-3 -6 1 -7 9 -4 18 7 21 14 7 14 -6 0 -13 -4 -16 -10z"/>
<path d="M1136 1352 c-3 -5 9 -22 27 -38 l32 -29 -28 31 c-15 17 -24 33 -20
37 3 4 4 7 0 7 -3 0 -8 -4 -11 -8z"/>
<path d="M1315 1351 c-3 -5 -2 -12 3 -15 5 -3 9 1 9 9 0 17 -3 19 -12 6z"/>
<path d="M1830 1330 c0 -5 5 -10 11 -10 5 0 7 5 4 10 -3 6 -8 10 -11 10 -2 0
-4 -4 -4 -10z"/>
<path d="M304 1312 c4 -3 14 -7 22 -8 9 -1 13 0 10 4 -4 3 -14 7 -22 8 -9 1
-13 0 -10 -4z"/>
<path d="M1336 1284 c-9 -24 -2 -26 12 -4 7 11 8 20 3 20 -5 0 -12 -7 -15 -16z"/>
<path d="M1160 1286 c0 -2 7 -9 15 -16 9 -7 15 -8 15 -2 0 5 -7 12 -15 16 -8
3 -15 4 -15 2z"/>
<path d="M1815 1281 c-6 -11 13 -26 22 -17 4 3 1 6 -6 6 -7 0 -9 5 -6 10 3 6
4 10 1 10 -3 0 -7 -4 -11 -9z"/>
<path d="M1273 1265 c0 -8 4 -12 9 -9 5 3 6 10 3 15 -9 13 -12 11 -12 -6z"/>
<path d="M1310 1251 c0 -6 4 -13 10 -16 6 -3 7 1 4 9 -7 18 -14 21 -14 7z"/>
<path d="M1270 1230 c0 -5 5 -10 10 -10 6 0 10 5 10 10 0 6 -4 10 -10 10 -5 0
-10 -4 -10 -10z"/>
<path d="M1318 1213 c7 -3 16 -2 19 1 4 3 -2 6 -13 5 -11 0 -14 -3 -6 -6z"/>
<path d="M1320 1186 c15 -15 12 -26 -6 -26 -8 0 -12 5 -8 11 3 6 -5 4 -18 -5
-14 -9 -26 -15 -29 -13 -2 1 10 -12 26 -29 25 -26 32 -30 41 -18 6 7 13 12 15
9 3 -2 5 11 5 30 0 19 -4 35 -9 35 -4 0 -6 4 -3 8 3 5 -2 9 -10 9 -10 0 -11
-4 -4 -11z m0 -36 c19 10 21 2 6 -31 -7 -15 -10 -15 -29 5 -14 13 -18 24 -12
28 5 4 11 3 13 -2 2 -6 10 -6 22 0z"/>
<path d="M1310 1129 c0 -5 5 -7 10 -4 6 3 10 8 10 11 0 2 -4 4 -10 4 -5 0 -10
-5 -10 -11z"/>
<path d="M1817 1178 c19 -21 31 -25 14 -5 -6 8 -9 16 -6 19 3 2 -2 5 -10 5
-13 0 -13 -3 2 -19z"/>
<path d="M306 1148 c3 -4 9 -8 15 -8 5 0 9 4 9 8 0 5 -7 9 -15 9 -8 0 -12 -4
-9 -9z"/>
<path d="M1850 1149 c0 -5 5 -7 10 -4 6 3 10 8 10 11 0 2 -4 4 -10 4 -5 0 -10
-5 -10 -11z"/>
<path d="M270 1136 c0 -2 7 -7 16 -10 8 -3 12 -2 9 4 -6 10 -25 14 -25 6z"/>
<path d="M316 1065 c-9 -26 -7 -32 5 -12 6 10 9 21 6 23 -2 3 -7 -2 -11 -11z"/>
<path d="M306 988 c3 -4 9 -8 15 -8 5 0 9 4 9 8 0 5 -7 9 -15 9 -8 0 -12 -4
-9 -9z"/>
<path d="M1820 990 c8 -5 20 -10 25 -10 6 0 3 5 -5 10 -8 5 -19 10 -25 10 -5
0 -3 -5 5 -10z"/>
<path d="M291 957 c-8 -10 -7 -14 2 -14 8 0 14 6 14 14 0 7 -1 13 -2 13 -2 0
-8 -6 -14 -13z"/>
<path d="M883 958 c-13 -17 -14 -60 -2 -52 5 3 7 15 4 27 -6 21 -6 22 9 3 9
-11 16 -22 16 -26 0 -3 10 -11 22 -19 16 -10 14 -4 -10 25 -17 20 -29 41 -26
46 8 13 -3 9 -13 -4z"/>
<path d="M315 910 c-3 -5 -1 -10 4 -10 6 0 11 5 11 10 0 6 -2 10 -4 10 -3 0
-8 -4 -11 -10z"/>
<path d="M787 909 c7 -7 15 -10 18 -7 3 3 -2 9 -12 12 -14 6 -15 5 -6 -5z"/>
<path d="M1830 909 c0 -5 5 -7 10 -4 6 3 10 8 10 11 0 2 -4 4 -10 4 -5 0 -10
-5 -10 -11z"/>
<path d="M815 889 c-4 -6 -5 -12 -2 -15 2 -3 7 2 10 11 7 17 1 20 -8 4z"/>
<path d="M839 883 c-13 -16 -12 -17 4 -4 9 7 17 15 17 17 0 8 -8 3 -21 -13z"/>
<path d="M913 875 c0 -8 4 -12 9 -9 5 3 6 10 3 15 -9 13 -12 11 -12 -6z"/>
<path d="M1815 870 c3 -5 8 -10 11 -10 2 0 4 5 4 10 0 6 -5 10 -11 10 -5 0 -7
-4 -4 -10z"/>
<path d="M793 834 c0 -16 2 -24 4 -17 2 7 11 9 19 6 8 -3 14 0 14 7 0 6 -4 9
-9 5 -6 -3 -14 2 -19 11 -8 14 -9 11 -9 -12z"/>
<path d="M846 848 c3 -5 10 -6 15 -3 13 9 11 12 -6 12 -8 0 -12 -4 -9 -9z"/>
<path d="M930 849 c0 -5 5 -7 10 -4 6 3 10 8 10 11 0 2 -4 4 -10 4 -5 0 -10
-5 -10 -11z"/>
<path d="M313 821 c10 -12 9 -14 -6 -8 -11 4 -16 3 -12 -4 4 -5 12 -8 18 -6
16 5 17 34 1 34 -11 0 -11 -3 -1 -16z"/>
<path d="M1830 836 c0 -2 7 -7 16 -10 8 -3 12 -2 9 4 -6 10 -25 14 -25 6z"/>
<path d="M950 816 c0 -2 7 -7 16 -10 8 -3 12 -2 9 4 -6 10 -25 14 -25 6z"/>
<path d="M825 790 c10 -11 20 -20 23 -20 3 0 -3 9 -13 20 -10 11 -20 20 -23
20 -3 0 3 -9 13 -20z"/>
<path d="M980 776 c0 -2 7 -9 15 -16 9 -7 15 -8 15 -2 0 5 -7 12 -15 16 -8 3
-15 4 -15 2z"/>
<path d="M1824 758 c0 -10 1 -18 3 -18 1 0 7 8 12 18 7 13 6 19 -2 19 -7 0
-13 -9 -13 -19z"/>
<path d="M790 659 c0 -5 5 -7 10 -4 6 3 10 8 10 11 0 2 -4 4 -10 4 -5 0 -10
-5 -10 -11z"/>
<path d="M1073 639 c-2 -23 3 -25 10 -4 4 8 3 16 -1 19 -4 3 -9 -4 -9 -15z"/>
<path d="M1100 610 c-9 -6 -10 -10 -3 -10 6 0 15 5 18 10 8 12 4 12 -15 0z"/>
<path d="M1813 595 c-3 -9 -3 -18 -1 -21 3 -3 8 4 11 16 6 23 -1 27 -10 5z"/>
<path d="M310 586 c14 -18 13 -19 -5 -12 -16 6 -18 5 -7 -5 8 -9 15 -10 22 -3
8 8 5 15 -7 25 -17 13 -17 13 -3 -5z"/>
<path d="M781 586 c2 -2 15 -9 29 -15 24 -11 24 -11 6 3 -16 13 -49 24 -35 12z"/>
<path d="M793 552 c-9 -6 -7 -11 7 -20 12 -7 21 -8 25 -2 4 6 1 9 -7 8 -7 -2
-12 3 -10 10 2 14 1 14 -15 4z"/>
<path d="M1153 545 c0 -8 4 -12 9 -9 5 3 6 10 3 15 -9 13 -12 11 -12 -6z"/>
<path d="M1820 550 c0 -5 5 -10 10 -10 6 0 10 5 10 10 0 6 -4 10 -10 10 -5 0
-10 -4 -10 -10z"/>
<path d="M1173 509 c-2 -23 3 -25 10 -4 4 8 3 16 -1 19 -4 3 -9 -4 -9 -15z"/>
<path d="M1830 516 c0 -2 7 -7 16 -10 8 -3 12 -2 9 4 -6 10 -25 14 -25 6z"/>
<path d="M313 495 c0 -8 4 -12 9 -9 5 3 6 10 3 15 -9 13 -12 11 -12 -6z"/>
<path d="M794 499 c1 -7 10 -13 19 -15 9 -1 15 2 11 7 -3 5 -9 7 -14 4 -4 -3
-11 0 -13 5 -3 6 -4 5 -3 -1z"/>
<path d="M1180 469 c0 -5 5 -7 10 -4 6 3 10 8 10 11 0 2 -4 4 -10 4 -5 0 -10
-5 -10 -11z"/>
<path d="M1824 438 c0 -10 1 -18 3 -18 1 0 7 8 12 18 7 13 6 19 -2 19 -7 0
-13 -9 -13 -19z"/>
<path d="M1225 427 c-14 -11 -15 -16 -5 -22 9 -6 11 -4 5 5 -6 10 -4 12 9 7
10 -4 20 -7 23 -7 3 0 -1 -8 -8 -17 -13 -17 -12 -17 4 -4 17 13 17 16 3 26 -9
7 -13 15 -9 18 11 12 -3 7 -22 -6z"/>
<path d="M316 323 c-6 -14 -5 -15 5 -6 7 7 10 15 7 18 -3 3 -9 -2 -12 -12z"/>
<path d="M280 310 c-9 -6 -10 -10 -3 -10 6 0 15 5 18 10 8 12 4 12 -15 0z"/>
<path d="M790 309 c0 -5 5 -7 10 -4 6 3 10 8 10 11 0 2 -4 4 -10 4 -5 0 -10
-5 -10 -11z"/>
<path d="M1313 235 c0 -8 4 -12 9 -9 5 3 6 10 3 15 -9 13 -12 11 -12 -6z"/>
<path d="M1350 230 c0 -5 5 -10 11 -10 5 0 7 5 4 10 -3 6 -8 10 -11 10 -2 0
-4 -4 -4 -10z"/>
<path d="M435 181 c-3 -5 -2 -12 3 -15 5 -3 9 1 9 9 0 17 -3 19 -12 6z"/>
<path d="M1470 181 c0 -5 7 -12 16 -15 14 -5 15 -4 4 9 -14 17 -20 19 -20 6z"/>
<path d="M1510 182 c0 -6 9 -12 20 -15 11 -3 20 -3 20 -1 0 2 -9 8 -20 14 -11
6 -20 7 -20 2z"/>
<path d="M1628 183 c7 -3 16 -2 19 1 4 3 -2 6 -13 5 -11 0 -14 -3 -6 -6z"/>
<path d="M1670 180 c-9 -6 -10 -10 -3 -10 6 0 15 5 18 10 8 12 4 12 -15 0z"/>
<path d="M480 176 c0 -2 7 -7 16 -10 8 -3 12 -2 9 4 -6 10 -25 14 -25 6z"/>
<path d="M553 161 c0 -11 5 -18 9 -15 4 3 5 11 1 19 -7 21 -12 19 -10 -4z"/>
<path d="M590 170 c0 -5 5 -10 11 -10 5 0 7 5 4 10 -3 6 -8 10 -11 10 -2 0 -4
-4 -4 -10z"/>
<path d="M1415 170 c-3 -5 -1 -10 4 -10 6 0 11 5 11 10 0 6 -2 10 -4 10 -3 0
-8 -4 -11 -10z"/>
<path d="M1590 170 c0 -5 5 -10 10 -10 6 0 10 5 10 10 0 6 -4 10 -10 10 -5 0
-10 -4 -10 -10z"/>
<path d="M1675 151 c-3 -5 -2 -12 3 -15 5 -3 9 1 9 9 0 17 -3 19 -12 6z"/>
</g>
</svg>
